{
    "asset": {
        "generator": "Khronos glTF Blender I/O v1.0.5",
        "version": "2.0"
    },
    "scene": 0,
    "scenes": [
        {
            "name": "Scene",
            "nodes": [0]
        }
    ],
    "nodes": [
        {
            "mesh": 0,
            "name": "D12"
        }
    ],
    "meshes": [
        {
            "name": "Mesh.019",
            "primitives": [
                {
                    "attributes": {
                        "POSITION": 0,
                        "NORMAL": 1,
                        "TEXCOORD_0": 2,
                        "TEXCOORD_1": 3
                    },
                    "indices": 4
                }
            ]
        }
    ],
    "accessors": [
        {
            "bufferView": 0,
            "componentType": 5126,
            "count": 1114,
            "max": [0.8390870690345764, 0.8390651345252991, 0.837658166885376],
            "min": [
                -0.8390917181968689, -0.8405885696411133, -0.837295651435852
            ],
            "type": "VEC3"
        },
        {
            "bufferView": 1,
            "componentType": 5126,
            "count": 1114,
            "type": "VEC3"
        },
        {
            "bufferView": 2,
            "componentType": 5126,
            "count": 1114,
            "type": "VEC2"
        },
        {
            "bufferView": 3,
            "componentType": 5126,
            "count": 1114,
            "type": "VEC2"
        },
        {
            "bufferView": 4,
            "componentType": 5123,
            "count": 4428,
            "type": "SCALAR"
        }
    ],
    "bufferViews": [
        {
            "buffer": 0,
            "byteLength": 13368,
            "byteOffset": 0
        },
        {
            "buffer": 0,
            "byteLength": 13368,
            "byteOffset": 13368
        },
        {
            "buffer": 0,
            "byteLength": 8912,
            "byteOffset": 26736
        },
        {
            "buffer": 0,
            "byteLength": 8912,
            "byteOffset": 35648
        },
        {
            "buffer": 0,
            "byteLength": 8856,
            "byteOffset": 44560
        }
    ],
    "buffers": [
        {
            "byteLength": 53416,
            "uri": "data:application/octet-stream;base64,"
        }
    ]
}
