{
    "asset": {
        "generator": "Khronos glTF Blender I/O v1.0.5",
        "version": "2.0"
    },
    "scene": 0,
    "scenes": [
        {
            "name": "Scene",
            "nodes": [0]
        }
    ],
    "nodes": [
        {
            "mesh": 0,
            "name": "D20"
        }
    ],
    "meshes": [
        {
            "name": "Mesh.010",
            "primitives": [
                {
                    "attributes": {
                        "POSITION": 0,
                        "NORMAL": 1,
                        "TEXCOORD_0": 2,
                        "TEXCOORD_1": 3
                    },
                    "indices": 4
                }
            ]
        }
    ],
    "accessors": [
        {
            "bufferView": 0,
            "componentType": 5126,
            "count": 1112,
            "max": [0.9270212650299072, 0.9281677603721619, 0.9284254312515259],
            "min": [
                -0.9270218014717102, -0.9281666278839111, -0.9284253716468811
            ],
            "type": "VEC3"
        },
        {
            "bufferView": 1,
            "componentType": 5126,
            "count": 1112,
            "type": "VEC3"
        },
        {
            "bufferView": 2,
            "componentType": 5126,
            "count": 1112,
            "type": "VEC2"
        },
        {
            "bufferView": 3,
            "componentType": 5126,
            "count": 1112,
            "type": "VEC2"
        },
        {
            "bufferView": 4,
            "componentType": 5123,
            "count": 4380,
            "type": "SCALAR"
        }
    ],
    "bufferViews": [
        {
            "buffer": 0,
            "byteLength": 13344,
            "byteOffset": 0
        },
        {
            "buffer": 0,
            "byteLength": 13344,
            "byteOffset": 13344
        },
        {
            "buffer": 0,
            "byteLength": 8896,
            "byteOffset": 26688
        },
        {
            "buffer": 0,
            "byteLength": 8896,
            "byteOffset": 35584
        },
        {
            "buffer": 0,
            "byteLength": 8760,
            "byteOffset": 44480
        }
    ],
    "buffers": [
        {
            "byteLength": 53240,
            "uri": "data:application/octet-stream;base64,"
        }
    ]
}
