{
    "asset": {
        "generator": "Khronos glTF Blender I/O v1.0.5",
        "version": "2.0"
    },
    "scene": 0,
    "scenes": [
        {
            "name": "Scene",
            "nodes": [0]
        }
    ],
    "nodes": [
        {
            "mesh": 0,
            "name": "D4"
        }
    ],
    "meshes": [
        {
            "name": "Mesh.013",
            "primitives": [
                {
                    "attributes": {
                        "POSITION": 0,
                        "NORMAL": 1,
                        "TEXCOORD_0": 2,
                        "TEXCOORD_1": 3
                    },
                    "indices": 4
                }
            ]
        }
    ],
    "accessors": [
        {
            "bufferView": 0,
            "componentType": 5126,
            "count": 256,
            "max": [0.738447904586792, 0.7309030294418335, 0.7950140833854675],
            "min": [
                -0.7455824017524719, -0.7531318664550781, -0.6834375262260437
            ],
            "type": "VEC3"
        },
        {
            "bufferView": 1,
            "componentType": 5126,
            "count": 256,
            "type": "VEC3"
        },
        {
            "bufferView": 2,
            "componentType": 5126,
            "count": 256,
            "type": "VEC2"
        },
        {
            "bufferView": 3,
            "componentType": 5126,
            "count": 256,
            "type": "VEC2"
        },
        {
            "bufferView": 4,
            "componentType": 5123,
            "count": 876,
            "type": "SCALAR"
        }
    ],
    "bufferViews": [
        {
            "buffer": 0,
            "byteLength": 3072,
            "byteOffset": 0
        },
        {
            "buffer": 0,
            "byteLength": 3072,
            "byteOffset": 3072
        },
        {
            "buffer": 0,
            "byteLength": 2048,
            "byteOffset": 6144
        },
        {
            "buffer": 0,
            "byteLength": 2048,
            "byteOffset": 8192
        },
        {
            "buffer": 0,
            "byteLength": 1752,
            "byteOffset": 10240
        }
    ],
    "buffers": [
        {
            "byteLength": 11992,
            "uri": "data:application/octet-stream;base64,"
        }
    ]
}
