{
    "asset": {
        "generator": "Khronos glTF Blender I/O v1.0.5",
        "version": "2.0"
    },
    "scene": 0,
    "scenes": [
        {
            "name": "Scene",
            "nodes": [0]
        }
    ],
    "nodes": [
        {
            "mesh": 0,
            "name": "D8",
            "translation": [0.029999999329447746, 0, 0]
        }
    ],
    "meshes": [
        {
            "name": "Mesh.004",
            "primitives": [
                {
                    "attributes": {
                        "POSITION": 0,
                        "NORMAL": 1,
                        "TEXCOORD_0": 2,
                        "TEXCOORD_1": 3
                    },
                    "indices": 4
                }
            ]
        }
    ],
    "accessors": [
        {
            "bufferView": 0,
            "componentType": 5126,
            "count": 500,
            "max": [1.0875401496887207, 1.087552547454834, 1.0876537561416626],
            "min": [
                -1.0875403881072998, -1.0875524282455444, -1.0876543521881104
            ],
            "type": "VEC3"
        },
        {
            "bufferView": 1,
            "componentType": 5126,
            "count": 500,
            "type": "VEC3"
        },
        {
            "bufferView": 2,
            "componentType": 5126,
            "count": 500,
            "type": "VEC2"
        },
        {
            "bufferView": 3,
            "componentType": 5126,
            "count": 500,
            "type": "VEC2"
        },
        {
            "bufferView": 4,
            "componentType": 5123,
            "count": 1752,
            "type": "SCALAR"
        }
    ],
    "bufferViews": [
        {
            "buffer": 0,
            "byteLength": 6000,
            "byteOffset": 0
        },
        {
            "buffer": 0,
            "byteLength": 6000,
            "byteOffset": 6000
        },
        {
            "buffer": 0,
            "byteLength": 4000,
            "byteOffset": 12000
        },
        {
            "buffer": 0,
            "byteLength": 4000,
            "byteOffset": 16000
        },
        {
            "buffer": 0,
            "byteLength": 3504,
            "byteOffset": 20000
        }
    ],
    "buffers": [
        {
            "byteLength": 23504,
            "uri": "data:application/octet-stream;base64,"
        }
    ]
}
