{
	"asset":{
		"generator":"Khronos glTF Blender I/O v4.2.70",
		"version":"2.0"
	},
	"scene":0,
	"scenes":[
		{
			"name":"Scene",
			"nodes":[
				0
			]
		}
	],
	"nodes":[
		{
			"mesh":0,
			"name":"12Yellow",
			"scale":[
				0.760686457157135,
				0.760686457157135,
				0.760686457157135
			],
			"translation":[
				0,
				-2.0547239780426025,
				0
			]
		}
	],
	"materials":[
		{
			"doubleSided":true,
			"emissiveFactor":[
				0.5,
				0.5,
				0.5
			],
			"emissiveTexture":{
				"index":0
			},
			"name":"12Yellow",
			"normalTexture":{
				"index":1,
				"scale":1.000000238418579
			},
			"pbrMetallicRoughness":{
				"baseColorTexture":{
					"index":2
				},
				"metallicFactor":0.4772730767726898,
				"metallicRoughnessTexture":{
					"index":3
				}
			}
		}
	],
	"meshes":[
		{
			"name":"Solid.019",
			"primitives":[
				{
					"attributes":{
						"POSITION":0,
						"NORMAL":1,
						"TEXCOORD_0":2
					},
					"indices":3,
					"material":0
				}
			]
		}
	],
	"textures":[
		{
			"sampler":0,
			"source":0
		},
		{
			"sampler":0,
			"source":1
		},
		{
			"sampler":0,
			"source":2
		},
		{
			"sampler":0,
			"source":3
		}
	],
	"images":[
		{
			"mimeType":"image/jpeg",
			"name":"1 2emission",
			"uri":"textures/1%202emission.jpg"
		},
		{
			"mimeType":"image/png",
			"name":"12Normal",
			"uri":"textures/12Normal.png"
		},
		{
			"mimeType":"image/jpeg",
			"name":"12",
			"uri":"textures/12.jpg"
		},
		{
			"mimeType":"image/png",
			"name":"roughness",
			"uri":"textures/roughness.png"
		}
	],
	"accessors":[
		{
			"bufferView":0,
			"componentType":5126,
			"count":214,
			"max":[
				0.9258463382720947,
				0.9258463382720947,
				0.9258463382720947
			],
			"min":[
				-0.9258463382720947,
				-0.9258463382720947,
				-0.9258463382720947
			],
			"type":"VEC3"
		},
		{
			"bufferView":1,
			"componentType":5126,
			"count":214,
			"type":"VEC3"
		},
		{
			"bufferView":2,
			"componentType":5126,
			"count":214,
			"type":"VEC2"
		},
		{
			"bufferView":3,
			"componentType":5123,
			"count":828,
			"type":"SCALAR"
		}
	],
	"bufferViews":[
		{
			"buffer":0,
			"byteLength":2568,
			"byteOffset":0,
			"target":34962
		},
		{
			"buffer":0,
			"byteLength":2568,
			"byteOffset":2568,
			"target":34962
		},
		{
			"buffer":0,
			"byteLength":1712,
			"byteOffset":5136,
			"target":34962
		},
		{
			"buffer":0,
			"byteLength":1656,
			"byteOffset":6848,
			"target":34963
		}
	],
	"samplers":[
		{
			"magFilter":9729,
			"minFilter":9987
		}
	],
	"buffers":[
		{
			"byteLength":8504,
			"uri":"d12.bin"
		}
	]
}
