{
	"asset":{
		"generator":"Khronos glTF Blender I/O v4.2.70",
		"version":"2.0"
	},
	"scene":0,
	"scenes":[
		{
			"name":"Scene",
			"nodes":[
				0
			]
		}
	],
	"nodes":[
		{
			"mesh":0,
			"name":"6Yellow",
			"scale":[
				0.5858020782470703,
				0.5858020782470703,
				0.5858020782470703
			],
			"translation":[
				0,
				-7.885301113128662,
				0
			]
		}
	],
	"materials":[
		{
			"doubleSided":true,
			"emissiveFactor":[
				0.5,
				0.5,
				0.5
			],
			"emissiveTexture":{
				"index":0
			},
			"name":"6Yellow",
			"normalTexture":{
				"index":1
			},
			"pbrMetallicRoughness":{
				"baseColorTexture":{
					"index":2
				},
				"metallicFactor":0.6363639831542969,
				"metallicRoughnessTexture":{
					"index":3
				}
			}
		}
	],
	"meshes":[
		{
			"name":"Cube.001",
			"primitives":[
				{
					"attributes":{
						"POSITION":0,
						"NORMAL":1,
						"TEXCOORD_0":2
					},
					"indices":3,
					"material":0
				}
			]
		}
	],
	"textures":[
		{
			"sampler":0,
			"source":0
		},
		{
			"sampler":0,
			"source":1
		},
		{
			"sampler":0,
			"source":2
		},
		{
			"sampler":0,
			"source":3
		}
	],
	"images":[
		{
			"mimeType":"image/jpeg",
			"name":"6 emission",
			"uri":"textures/6%20emission.jpg"
		},
		{
			"mimeType":"image/png",
			"name":"SixSidedNormal",
			"uri":"textures/SixSidedNormal.png"
		},
		{
			"mimeType":"image/jpeg",
			"name":"6",
			"uri":"textures/6.jpg"
		},
		{
			"mimeType":"image/png",
			"name":"roughness",
			"uri":"textures/roughness.png"
		}
	],
	"accessors":[
		{
			"bufferView":0,
			"componentType":5126,
			"count":78,
			"max":[
				1,
				1,
				1
			],
			"min":[
				-1,
				-1,
				-1
			],
			"type":"VEC3"
		},
		{
			"bufferView":1,
			"componentType":5126,
			"count":78,
			"type":"VEC3"
		},
		{
			"bufferView":2,
			"componentType":5126,
			"count":78,
			"type":"VEC2"
		},
		{
			"bufferView":3,
			"componentType":5123,
			"count":324,
			"type":"SCALAR"
		}
	],
	"bufferViews":[
		{
			"buffer":0,
			"byteLength":936,
			"byteOffset":0,
			"target":34962
		},
		{
			"buffer":0,
			"byteLength":936,
			"byteOffset":936,
			"target":34962
		},
		{
			"buffer":0,
			"byteLength":624,
			"byteOffset":1872,
			"target":34962
		},
		{
			"buffer":0,
			"byteLength":648,
			"byteOffset":2496,
			"target":34963
		}
	],
	"samplers":[
		{
			"magFilter":9729,
			"minFilter":9987
		}
	],
	"buffers":[
		{
			"byteLength":3144,
			"uri":"d6.bin"
		}
	]
}
